<svg xmlns="http://www.w3.org/2000/svg" shape-rendering="geometricPrecision" text-rendering="geometricPrecision" image-rendering="optimizeQuality" fill-rule="evenodd" clip-rule="evenodd" viewBox="0 0 512 279.021"><path d="M67.859 99.921c.468.47.926.952 1.371 1.444h54.374c33.031-17.238 70.377-31.302 108.517-39.247V44.495c0-2.419.99-4.619 2.578-6.207a8.765 8.765 0 016.207-2.578h17.037v-6.091H71.599a6.77 6.77 0 010-13.536h186.468c.808-7.506 5.477-12.404 11.302-14.68a20.675 20.675 0 0114.976 0c5.827 2.276 10.495 7.174 11.304 14.68h186.469a6.768 6.768 0 010 13.536H295.772v6.091h17.039c2.419 0 4.618.988 6.207 2.577a8.76 8.76 0 012.577 6.208v11.643c1.702.159 3.4.33 5.093.523 55.412 6.34 106.043 31.727 140.311 85.859 5.148 8.133 12.756 27.236 16.442 44.909 2.801 13.426 3.368 26.39-.882 34.231-2.526 4.659-6.483 8.23-11.842 10.63-4.837 2.163-10.826 3.32-17.941 3.399h-.042v.022h-26.247l12.04 29.581c12.813.523 24.424.274 34.567-2.09 10.502-2.448 19.559-7.262 26.97-16.088a6.757 6.757 0 019.516-.846 6.757 6.757 0 01.846 9.516c-9.525 11.344-21.015 17.494-34.265 20.584-12.471 2.907-26.359 3.012-41.617 2.255l-234.126.002v-.014c-12.381.537-22.347-.88-31.78-4.52-9.388-3.625-17.953-9.345-27.658-17.461a6.757 6.757 0 01-.846-9.516 6.757 6.757 0 019.516-.846c8.63 7.217 16.059 12.232 23.852 15.241 6.565 2.533 13.614 3.726 22.148 3.716l12.37-34.281c.052-.146.11-.288.17-.429l-85.183-69.194H63.843l-16.919 51.833c-1.193 4.684-5.439 8.148-10.494 8.148H11.94c-.967 0-1.906-.012-2.873-.169-5.886-.958-9.883-6.508-8.925-12.393l9.508-58.459a38.402 38.402 0 01-7.661-23.076 38.411 38.411 0 017.32-22.613L.142 48.228c-.958-5.886 3.039-11.435 8.925-12.393.583-.095 1.162-.14 1.734-.141v-.029H36.43c5.055 0 9.301 3.464 10.494 8.148l17.258 52.87a38.877 38.877 0 013.677 3.238zm8.271 12.272a38.463 38.463 0 013.031 15.012 38.41 38.41 0 01-7.821 23.288h53.561v.017c1.198 0 2.404.395 3.405 1.21l90.069 73.162h234.359v.021c5.558-.065 10.092-.906 13.584-2.468 3.091-1.383 5.338-3.378 6.724-5.936 2.878-5.308 2.162-15.674-.173-26.871a153.015 153.015 0 00-2.435-9.923l-141.838.006a4.913 4.913 0 01-4.913-4.913V67.212c-65.322-6.958-137.564 13.539-195.949 44.181-.824.508-1.794.8-2.833.8H76.13zm166.819-52.158c22.688-4.01 45.539-5.774 67.818-4.67v-8.827h-19.45a5.32 5.32 0 01-1.917 0h-25.084a5.31 5.31 0 01-1.917 0h-19.45v13.497zm41.995-24.325V18.438c0-3.659-1.989-5.977-4.531-6.97-1.09-.426-2.31-.64-3.556-.64s-2.465.214-3.555.64c-2.542.993-4.53 3.311-4.53 6.97V35.71h16.172zm138.905 229.38l-11.959-29.379H220.628l-10.6 29.379h213.821zM404.548 94.227c-21.31-12.819-45.76-21.051-71.039-24.329v99.987h133.869c-2.503-7.303-5.264-13.832-7.678-18.407l-.238-.448a45.242 45.242 0 00-1.599-2.758c-14.841-23.444-32.97-41.16-53.315-54.045zM19.126 159.283l-8.325 51.191H36.43l15.101-46.262a38.579 38.579 0 01-10.956 1.578 38.408 38.408 0 01-21.449-6.507zm21.449-59.835c15.33 0 27.757 12.427 27.757 27.757 0 15.329-12.427 27.757-27.757 27.757-15.33 0-27.758-12.428-27.758-27.757 0-15.33 12.428-27.757 27.758-27.757zm0 18.291c5.228 0 9.466 4.239 9.466 9.466a9.468 9.468 0 11-9.466-9.466zM18.751 95.382l-7.95-48.888H36.43l14.181 43.445a38.63 38.63 0 00-10.036-1.32 38.418 38.418 0 00-21.824 6.763z"/></svg>